PathFileType	4	(X/Y/Z)	SUBJ63_2_walk_RCNL2025.trc
DataRate	CameraRate	NumFrames	NumMarkers	Units	OrigDataRate	OrigDataStartFrame	OrigNumFrames
100	100	11	25	mm	100	136	270
Frame#	Time	R_Shoulder			L_Shoulder			C7			J_Notch			R_Elbow			L_Elbow			R_Wrist			L_Wrist			R_Asis			L_Asis			Sacral			Thoracic			Sternum			R_Thigh_Lateral			R_Knee_Lateral			R_Shank_Lateral			R_Ankle_Lateral			R_Heel			R_Toe			L_Thigh_Lateral			L_Knee_Lateral			L_Shank_Lateral			L_Ankle_Lateral			L_Heel			L_Toe		
		X1	Y1	Z1	X2	Y2	Z2	X3	Y3	Z3	X4	Y4	Z4	X5	Y5	Z5	X6	Y6	Z6	X7	Y7	Z7	X8	Y8	Z8	X9	Y9	Z9	X10	Y10	Z10	X11	Y11	Z11	X12	Y12	Z12	X13	Y13	Z13	X14	Y14	Z14	X15	Y15	Z15	X16	Y16	Z16	X17	Y17	Z17	X18	Y18	Z18	X19	Y19	Z19	X20	Y20	Z20	X21	Y21	Z21	X22	Y22	Z22	X23	Y23	Z23	X24	Y24	Z24	X25	Y25	Z25
136	1.35000000	429.146332	1263.567627	157.357056	488.137909	1271.233154	-169.638474	383.373291	1329.399048	-25.179703	499.699524	1220.250366	-4.066346	369.546417	987.581177	263.003204	498.382324	978.774658	-273.479584	441.402817	775.376221	317.746918	669.560242	830.009003	-263.347488	504.136322	821.400391	115.165344	536.004150	811.604858	-137.711105	297.267273	830.489197	-38.505844	299.394196	1147.549316	-39.614376	545.078064	1040.700684	8.691955	523.991882	485.948395	178.122986	558.910278	439.829376	135.971115	606.868530	267.915283	191.605972	703.490784	72.011330	129.904984	670.905090	51.375248	72.917244	816.044739	102.814583	139.990372	344.377838	465.686066	-225.252594	330.673096	439.886871	-156.704575	247.685608	265.163483	-192.968964	154.608231	89.195229	-120.937386	104.085693	101.475502	-71.577797	262.123016	39.905254	-111.728447
137	1.36000000	445.092285	1261.271973	159.957397	503.696289	1269.843994	-166.877029	398.722839	1327.370361	-22.364489	515.569092	1218.370605	-1.798676	384.727814	985.139343	265.214813	516.085083	977.695740	-270.612122	456.277374	772.706848	319.607971	689.716278	831.991150	-258.936729	521.393555	820.192017	116.432907	551.949463	810.165588	-136.366516	313.761536	828.398010	-35.076134	315.188507	1145.398682	-36.970818	561.344727	1038.561035	10.182136	543.971619	485.717987	180.020538	577.659058	438.737427	137.688080	625.518494	266.978577	193.281662	718.456726	70.258812	131.089264	684.606506	50.162415	74.698059	831.465027	98.883133	139.053986	357.843597	465.362091	-225.195129	344.404724	439.077118	-156.785110	256.172058	266.940491	-193.803040	157.367676	93.553467	-122.856987	107.398354	107.858246	-73.724464	262.822815	39.583710	-112.164902
138	1.37000000	461.275360	1259.242065	162.720474	519.182617	1268.689087	-164.107376	414.244812	1325.548340	-19.351511	531.598083	1216.803711	0.586522	400.355957	982.878479	267.550873	533.176758	976.708618	-267.691071	471.464722	770.147705	321.471786	708.752258	833.538513	-254.875099	538.789734	819.414246	117.899620	568.111206	808.751221	-134.722687	330.454285	826.387695	-31.700489	331.154999	1143.468628	-34.106350	577.803894	1036.850098	11.799537	565.226562	486.333405	182.131393	597.019409	438.151093	139.515427	642.785034	265.971558	194.684525	730.187012	67.884842	131.888763	694.959778	48.969540	76.045357	843.710144	93.036499	137.944122	372.542145	464.753052	-225.116302	359.391907	437.965546	-156.951447	265.554901	268.880188	-194.737320	160.815033	98.449646	-124.873886	111.713097	114.984901	-75.899605	263.596680	39.251640	-112.614120
139	1.38000000	477.692657	1257.501343	165.640961	534.606506	1267.793213	-161.343430	429.946167	1323.983032	-16.151522	547.772339	1215.582031	3.097193	416.447052	980.831421	269.988220	549.663818	975.839050	-264.733917	486.967865	767.732574	323.329208	726.670074	834.607452	-251.196144	556.252563	819.007935	119.619446	584.448608	807.340942	-132.759232	347.299469	824.458130	-28.447025	347.271820	1141.826538	-31.033241	594.481262	1035.592651	13.587709	587.242065	487.547302	184.428925	616.742126	438.021057	141.454376	658.786133	264.979889	195.867081	739.266357	65.179939	132.430161	702.595947	48.034801	77.090378	853.309998	85.773872	136.817749	388.540131	463.842499	-225.031357	375.755829	436.524323	-157.233383	275.966614	271.015320	-195.763321	165.152618	103.971649	-126.911247	117.302231	122.959717	-77.990601	264.487000	38.996761	-113.067650
140	1.39000000	494.346832	1256.065674	168.706177	549.993530	1267.177490	-158.591156	445.838470	1322.731567	-12.777890	564.074585	1214.726440	5.735347	433.004120	979.035461	272.497589	565.557495	975.118896	-261.753204	502.788971	765.502716	325.168564	743.479462	835.178497	-247.923248	573.697083	818.920959	121.625305	600.897583	805.937500	-130.466370	364.227631	822.604736	-25.369905	363.505676	1140.548096	-27.769022	611.387207	1034.796387	15.569544	609.420959	489.130554	186.899750	636.502380	438.291687	143.518814	673.735046	264.173920	196.943680	746.296204	62.485115	132.825974	708.180298	47.577301	77.952789	860.822449	77.742256	135.800400	405.902069	462.629608	-224.954376	393.619049	434.735809	-157.646545	287.607300	273.359711	-196.867767	170.623856	110.218033	-128.902344	124.447701	131.880875	-79.913620	265.583466	38.965633	-113.532616
141	1.40000000	511.244080	1254.947632	171.889511	565.384155	1266.862183	-155.848236	461.927185	1321.852783	-9.253160	580.482605	1214.245605	8.492698	450.015106	977.534607	275.043793	580.872742	974.586060	-258.761475	518.928574	763.510162	326.976059	759.191711	835.252655	-245.068947	591.038513	819.126282	123.922127	617.371582	804.567993	-127.849632	381.154144	820.835571	-22.507563	379.814697	1139.701294	-24.343353	628.497925	1034.450073	17.740814	631.141724	490.902344	189.537872	655.943665	438.910797	145.728729	687.890442	263.731537	198.076630	751.786316	60.096889	133.149002	712.298523	47.696003	78.715553	866.730652	69.650734	134.948776	424.703522	461.106537	-224.882034	413.095215	432.588715	-158.167114	300.742676	275.887299	-198.015030	177.501755	117.285034	-130.786636	133.415146	141.817078	-81.614021	267.050415	39.370872	-114.036995
142	1.41000000	528.389038	1254.160156	175.145767	580.825439	1266.866943	-153.102371	478.200592	1321.392090	-5.614720	596.966980	1214.133423	11.348370	467.452301	976.376038	277.586792	595.629822	974.285278	-255.774673	535.387085	761.818024	328.737091	773.816895	834.847382	-242.633698	608.198120	819.621460	126.481911	633.768433	803.279358	-124.935883	397.992004	819.185120	-19.881691	396.153748	1139.328125	-20.802189	645.743469	1034.519409	20.065918	651.829895	492.724640	192.330078	674.721558	439.811676	148.089966	701.491699	263.732178	199.418839	756.090698	58.192650	133.412399	715.384888	48.330265	79.403961	871.371704	62.155190	134.244049	445.042603	459.238312	-224.779251	434.276764	430.077209	-158.714432	315.682617	278.517273	-199.128540	186.066513	125.246147	-132.500626	144.425430	152.776794	-83.054756	269.154785	40.483643	-114.633057
143	1.42000000	545.775391	1253.717041	178.413376	596.353699	1267.204346	-150.334061	494.625092	1321.367920	-1.916140	613.490479	1214.367065	14.268416	485.272949	975.599426	280.086121	609.855957	974.264771	-252.813553	552.166443	760.492462	330.439316	787.365448	833.992584	-240.606995	625.109070	820.413818	129.245209	649.983398	802.130554	-121.777184	414.662415	817.718689	-17.491901	412.479431	1139.436401	-17.206324	663.012024	1034.945435	22.480213	671.037109	494.471466	195.233444	692.521484	440.884796	150.570358	714.662537	264.095398	201.033142	759.427612	56.820786	133.581100	717.726135	49.311295	79.989845	874.953308	55.745796	133.631531	467.037994	456.964020	-224.574631	457.217743	427.205933	-159.147614	332.732208	281.119659	-200.083054	196.579651	134.124146	-133.971695	157.631989	164.672562	-84.195160	272.287201	42.599682	-115.395721
144	1.43000000	563.375977	1253.629272	181.624832	611.976562	1267.874023	-147.529144	511.148804	1321.769897	1.776526	630.011841	1214.909058	17.206076	503.417969	975.224243	282.506866	623.583496	974.565918	-249.903030	569.271149	759.588348	332.075439	799.851868	832.727783	-238.971298	641.726074	821.504883	132.130676	665.927856	801.183899	-118.451065	431.100098	816.527100	-15.308536	428.752747	1140.009399	-13.622680	680.171997	1035.652222	24.901680	688.485901	496.015198	198.161789	709.052673	441.980957	153.093903	727.280579	264.620728	202.853073	761.950134	55.940521	133.614563	719.508423	50.447018	80.428818	877.628662	50.685913	133.070724	490.803680	454.229614	-224.171799	481.914398	424.008240	-159.287186	352.121124	283.553253	-200.719254	209.265793	143.853424	-135.116714	173.115555	177.283157	-84.967857	276.970490	45.971153	-116.410423
145	1.44000000	581.142456	1253.899414	184.718521	627.664978	1268.863647	-144.695572	527.710999	1322.571045	5.393975	646.491882	1215.717529	20.103394	521.813049	975.243774	284.823730	636.843506	975.211914	-247.070007	586.707031	759.136108	333.642578	811.297821	831.101685	-237.706703	658.034973	822.885071	135.046692	681.546204	800.500427	-115.058784	447.254761	815.717224	-13.270038	444.940674	1141.018555	-10.110897	697.100769	1036.561523	27.244513	704.049988	497.252289	200.996796	724.049561	442.952850	155.558395	738.938232	265.097076	204.721085	763.794922	55.464130	133.503906	720.856628	51.577599	80.700447	879.545410	47.013012	132.551590	516.401123	451.051453	-223.474609	508.288300	420.579498	-158.964279	373.940002	285.723511	-200.879822	224.306717	154.239182	-135.843140	190.895630	190.228287	-85.265373	283.842316	50.717770	-117.746849
146	1.45000000	599.016174	1254.518311	187.645370	643.357971	1270.152588	-141.873093	544.254700	1323.739502	8.875846	662.897400	1216.759766	22.896370	540.378235	975.631287	287.022614	649.657837	976.201355	-244.341782	604.477600	759.138733	335.139374	821.731995	829.172607	-236.793686	674.051636	824.537170	137.897110	696.822266	800.143494	-111.721664	463.091797	815.399658	-11.287931	461.016663	1142.431519	-6.710950	713.705933	1037.609497	29.426851	717.703369	498.136993	203.617844	737.305725	443.699127	157.861130	749.101807	265.397827	206.467606	765.089905	55.286102	133.276947	721.856873	52.594307	80.819572	880.847168	44.587872	132.083176	543.778259	447.584259	-222.412720	536.173645	417.108643	-158.070267	398.113800	287.618164	-200.447220	241.835663	164.940094	-136.054642	210.940735	202.981461	-84.949760	293.594757	56.757011	-119.423279
